<svg width="87" height="89" viewBox="0 0 87 89" fill="none" xmlns="http://www.w3.org/2000/svg">
  <path d="M83.0058 34.9557C81.1136 28.5412 75.0697 25.9765 69.1998 29.2946C66.8473 30.7362 64.9385 32.732 62.8575 34.6234C62.7392 31.3887 63.7379 28.2289 59.3958 28.2811C56.4369 28.1662 56.2429 28.3907 55.8401 31.7837C54.2802 44.9381 52.5593 58.076 51.1769 71.2504C51.1142 71.8577 51.6589 73.0522 52.0138 73.0896C53.8112 73.2766 55.6495 73.2766 57.4487 73.0948C57.8994 73.0487 58.5266 72.1282 58.6154 71.541C59.1809 67.8043 59.6176 64.0477 60.1196 60.1179C74.9314 70.1316 87.1296 47.5603 83.0058 34.9557ZM71.3104 54.1088C68.9162 56.6152 65.4658 57.2129 62.5913 55.5391C61.8353 55.0988 60.9766 53.9557 61.0131 53.1753C61.1784 46.3875 63.2951 39.0848 69.2511 35.0949C71.9551 33.4071 74.5773 34.5042 75.4412 37.5579C75.8074 38.8516 75.8518 40.2358 75.9667 41.0388C75.71 46.2631 74.6408 50.6227 71.3104 54.1088Z" fill="#4A57EB"/>
  <path d="M21.6273 29.0711C19.6742 29.1111 17.7202 29.0815 15.7618 29.0815C15.9706 22.3364 17.2051 20.9035 23.2916 20.2153C25.9208 19.9178 25.2335 17.7289 25.6145 16.1942C26.0391 14.482 24.5096 14.6386 23.6048 14.4463C14.7787 12.8116 8.63388 19.9752 8.01009 28.8657C3.38604 29.4347 3.28338 29.4956 3.18594 32.0099C3.07806 34.7887 5.40618 34.3633 7.32279 35.0297C6.0291 46.2092 4.63188 57.273 3.39474 68.4412C3.33036 69.0249 3.82626 70.1211 4.26039 70.2377C7.44894 71.0903 9.67179 69.8453 10.4096 66.595C12.8464 56.0802 13.7347 45.6393 15.078 34.8278C17.1268 34.8278 19.0095 34.78 20.8887 34.8452C22.1041 34.887 22.7279 34.4659 22.7862 33.2001C22.7601 31.7315 24.1616 28.9336 21.6273 29.0711Z" fill="#4A57EB"/>
  <path d="M31.066 13.7721C28.6891 13.7121 28.563 15.0345 28.3655 16.6927C26.548 32.0656 24.6819 46.9026 22.948 62.3773C24.956 62.3773 26.6794 62.3024 28.3916 62.3999C29.9471 62.4886 30.6466 62.0693 30.8476 60.3319C32.4327 46.6372 34.1579 32.9582 35.7874 19.2679C36.4408 13.7756 36.3773 13.9069 31.066 13.7721Z" fill="#4A57EB"/>
  <path d="M44.0968 28.6013C42.4456 28.5656 41.673 28.9823 41.4903 30.7893C40.3428 41.4947 39.0073 51.4274 37.7563 62.3007C39.7016 62.3007 41.2215 62.1476 42.6979 62.3364C45.019 62.6322 45.6419 61.5716 45.8725 59.448C46.7964 50.9455 47.9988 42.4717 48.8749 33.9639C49.5013 27.8774 50.8976 28.7465 44.0968 28.6013Z" fill="#4A57EB"/>
  <path d="M46.5728 14.549C44.029 14.5159 41.6939 16.858 41.6399 19.5002C41.586 22.1189 43.8497 24.5914 46.3675 24.6619C48.9836 24.735 51.397 22.2911 51.3952 19.5689C51.3935 16.878 49.1898 14.5838 46.5728 14.549Z" fill="#4A57EB"/>
  <mask id="path-6-outside-1_6_24" maskUnits="userSpaceOnUse" x="21" y="57" width="35" height="30" fill="black">
    <rect fill="white" x="21" y="57" width="35" height="30"/>
    <path d="M25.936 83C25.6693 83 25.536 82.8667 25.536 82.6V62.072C25.536 61.8053 25.6693 61.672 25.936 61.672H36.944C37.2107 61.672 37.344 61.8053 37.344 62.072V66.2C37.344 66.4667 37.2107 66.6 36.944 66.6H31.28V70.696H36.4C36.6667 70.696 36.8 70.8293 36.8 71.096V75.048C36.8 75.3147 36.6667 75.448 36.4 75.448H31.28V82.6C31.28 82.8667 31.1467 83 30.88 83H25.936ZM42.832 83C42.5653 83 42.432 82.8667 42.432 82.6V66.6H39.936C39.6693 66.6 39.536 66.4667 39.536 66.2V62.072C39.536 61.8053 39.6693 61.672 39.936 61.672H50.704C50.9707 61.672 51.104 61.8053 51.104 62.072V66.2C51.104 66.4667 50.9707 66.6 50.704 66.6H48.192V82.6C48.192 82.8667 48.0587 83 47.792 83H42.832Z"/>
  </mask>
  <path d="M25.936 83C25.6693 83 25.536 82.8667 25.536 82.6V62.072C25.536 61.8053 25.6693 61.672 25.936 61.672H36.944C37.2107 61.672 37.344 61.8053 37.344 62.072V66.2C37.344 66.4667 37.2107 66.6 36.944 66.6H31.28V70.696H36.4C36.6667 70.696 36.8 70.8293 36.8 71.096V75.048C36.8 75.3147 36.6667 75.448 36.4 75.448H31.28V82.6C31.28 82.8667 31.1467 83 30.88 83H25.936ZM42.832 83C42.5653 83 42.432 82.8667 42.432 82.6V66.6H39.936C39.6693 66.6 39.536 66.4667 39.536 66.2V62.072C39.536 61.8053 39.6693 61.672 39.936 61.672H50.704C50.9707 61.672 51.104 61.8053 51.104 62.072V66.2C51.104 66.4667 50.9707 66.6 50.704 66.6H48.192V82.6C48.192 82.8667 48.0587 83 47.792 83H42.832Z" fill="#343DA2"/>
  <path d="M31.28 66.6V62.6H27.28V66.6H31.28ZM31.28 70.696H27.28V74.696H31.28V70.696ZM31.28 75.448V71.448H27.28V75.448H31.28ZM25.936 83V79C26.4192 79 27.5164 79.1235 28.4644 80.0716C29.4125 81.0196 29.536 82.1168 29.536 82.6H25.536H21.536C21.536 83.3499 21.7262 84.647 22.8076 85.7284C23.889 86.8098 25.1861 87 25.936 87V83ZM25.536 82.6H29.536V62.072H25.536H21.536V82.6H25.536ZM25.536 62.072H29.536C29.536 62.5552 29.4125 63.6524 28.4644 64.6004C27.5164 65.5485 26.4192 65.672 25.936 65.672V61.672V57.672C25.1861 57.672 23.889 57.8622 22.8076 58.9436C21.7262 60.025 21.536 61.3221 21.536 62.072H25.536ZM25.936 61.672V65.672H36.944V61.672V57.672H25.936V61.672ZM36.944 61.672V65.672C36.4608 65.672 35.3636 65.5485 34.4156 64.6004C33.4675 63.6524 33.344 62.5552 33.344 62.072H37.344H41.344C41.344 61.3221 41.1538 60.025 40.0724 58.9436C38.991 57.8622 37.6939 57.672 36.944 57.672V61.672ZM37.344 62.072H33.344V66.2H37.344H41.344V62.072H37.344ZM37.344 66.2H33.344C33.344 65.7168 33.4675 64.6196 34.4156 63.6716C35.3636 62.7235 36.4608 62.6 36.944 62.6V66.6V70.6C37.6939 70.6 38.991 70.4098 40.0724 69.3284C41.1538 68.247 41.344 66.9499 41.344 66.2H37.344ZM36.944 66.6V62.6H31.28V66.6V70.6H36.944V66.6ZM31.28 66.6H27.28V70.696H31.28H35.28V66.6H31.28ZM31.28 70.696V74.696H36.4V70.696V66.696H31.28V70.696ZM36.4 70.696V74.696C35.9168 74.696 34.8196 74.5725 33.8716 73.6244C32.9235 72.6764 32.8 71.5792 32.8 71.096H36.8H40.8C40.8 70.3461 40.6098 69.049 39.5284 67.9676C38.447 66.8862 37.1499 66.696 36.4 66.696V70.696ZM36.8 71.096H32.8V75.048H36.8H40.8V71.096H36.8ZM36.8 75.048H32.8C32.8 74.5648 32.9235 73.4676 33.8716 72.5196C34.8196 71.5715 35.9168 71.448 36.4 71.448V75.448V79.448C37.1499 79.448 38.447 79.2578 39.5284 78.1764C40.6098 77.095 40.8 75.7979 40.8 75.048H36.8ZM36.4 75.448V71.448H31.28V75.448V79.448H36.4V75.448ZM31.28 75.448H27.28V82.6H31.28H35.28V75.448H31.28ZM31.28 82.6H27.28C27.28 82.1168 27.4035 81.0196 28.3516 80.0716C29.2996 79.1235 30.3968 79 30.88 79V83V87C31.6299 87 32.927 86.8098 34.0084 85.7284C35.0898 84.647 35.28 83.3499 35.28 82.6H31.28ZM30.88 83V79H25.936V83V87H30.88V83ZM42.432 66.6H46.432V62.6H42.432V66.6ZM48.192 66.6V62.6H44.192V66.6H48.192ZM42.832 83V79C43.3152 79 44.4124 79.1235 45.3604 80.0716C46.3085 81.0196 46.432 82.1168 46.432 82.6H42.432H38.432C38.432 83.3499 38.6222 84.647 39.7036 85.7284C40.785 86.8098 42.0821 87 42.832 87V83ZM42.432 82.6H46.432V66.6H42.432H38.432V82.6H42.432ZM42.432 66.6V62.6H39.936V66.6V70.6H42.432V66.6ZM39.936 66.6V62.6C40.4192 62.6 41.5164 62.7235 42.4644 63.6716C43.4125 64.6196 43.536 65.7168 43.536 66.2H39.536H35.536C35.536 66.9499 35.7262 68.247 36.8076 69.3284C37.889 70.4098 39.1861 70.6 39.936 70.6V66.6ZM39.536 66.2H43.536V62.072H39.536H35.536V66.2H39.536ZM39.536 62.072H43.536C43.536 62.5552 43.4125 63.6524 42.4644 64.6004C41.5164 65.5485 40.4192 65.672 39.936 65.672V61.672V57.672C39.1861 57.672 37.889 57.8622 36.8076 58.9436C35.7262 60.025 35.536 61.3221 35.536 62.072H39.536ZM39.936 61.672V65.672H50.704V61.672V57.672H39.936V61.672ZM50.704 61.672V65.672C50.2208 65.672 49.1236 65.5485 48.1756 64.6004C47.2275 63.6524 47.104 62.5552 47.104 62.072H51.104H55.104C55.104 61.3221 54.9138 60.025 53.8324 58.9436C52.751 57.8622 51.4539 57.672 50.704 57.672V61.672ZM51.104 62.072H47.104V66.2H51.104H55.104V62.072H51.104ZM51.104 66.2H47.104C47.104 65.7168 47.2275 64.6196 48.1756 63.6716C49.1236 62.7235 50.2208 62.6 50.704 62.6V66.6V70.6C51.4539 70.6 52.751 70.4098 53.8324 69.3284C54.9138 68.247 55.104 66.9499 55.104 66.2H51.104ZM50.704 66.6V62.6H48.192V66.6V70.6H50.704V66.6ZM48.192 66.6H44.192V82.6H48.192H52.192V66.6H48.192ZM48.192 82.6H44.192C44.192 82.1168 44.3155 81.0196 45.2636 80.0716C46.2116 79.1235 47.3088 79 47.792 79V83V87C48.5419 87 49.839 86.8098 50.9204 85.7284C52.0018 84.647 52.192 83.3499 52.192 82.6H48.192ZM47.792 83V79H42.832V83V87H47.792V83Z" fill="#F2F5FE" mask="url(#path-6-outside-1_6_24)"/>
</svg>
